<?xml version="1.0" encoding="UTF-8" standalone="no"?>
<!-- Created with Inkscape (http://www.inkscape.org/) -->

<svg
   xmlns:dc="http://purl.org/dc/elements/1.1/"
   xmlns:cc="http://creativecommons.org/ns#"
   xmlns:rdf="http://www.w3.org/1999/02/22-rdf-syntax-ns#"
   xmlns:svg="http://www.w3.org/2000/svg"
   xmlns="http://www.w3.org/2000/svg"
   xmlns:sodipodi="http://sodipodi.sourceforge.net/DTD/sodipodi-0.dtd"
   xmlns:inkscape="http://www.inkscape.org/namespaces/inkscape"
   width="64"
   height="84"
   viewBox="0 0 63.999997 83.999999"
   id="svg4919"
   version="1.1"
   inkscape:version="0.91 r"
   sodipodi:docname="bag_64.svg">
  <defs
     id="defs4921" />
  <sodipodi:namedview
     id="base"
     pagecolor="#ffffff"
     bordercolor="#666666"
     borderopacity="1.0"
     inkscape:pageopacity="0.0"
     inkscape:pageshadow="2"
     inkscape:zoom="2.8"
     inkscape:cx="153.79793"
     inkscape:cy="95.365325"
     inkscape:document-units="px"
     inkscape:current-layer="layer1"
     showgrid="false"
     fit-margin-top="0"
     fit-margin-left="0"
     fit-margin-right="0"
     fit-margin-bottom="0"
     units="px"
     inkscape:window-width="1920"
     inkscape:window-height="1029"
     inkscape:window-x="0"
     inkscape:window-y="25"
     inkscape:window-maximized="1" />
  <metadata
     id="metadata4924">
    <rdf:RDF>
      <cc:Work
         rdf:about="">
        <dc:format>image/svg+xml</dc:format>
        <dc:type
           rdf:resource="http://purl.org/dc/dcmitype/StillImage" />
        <dc:title></dc:title>
      </cc:Work>
    </rdf:RDF>
  </metadata>
  <g
     inkscape:label="Layer 1"
     inkscape:groupmode="layer"
     id="layer1"
     transform="translate(-549.59131,-707.6166)">
    <g
       id="g5496">
      <path
         inkscape:connector-curvature="0"
         id="path4805"
         d="m 581.59133,707.61658 a 13.521393,12.490794 0 0 0 -13.42014,11.04694 l -0.10005,0 0,1.44608 0,31.538 2.44887,0 0,-2.50294 0,-19.47745 0,-1.2812 0,-7.19524 0,-1.28119 0.0837,0 a 11.071275,11.071275 0 0 1 10.98749,-9.79009 11.071275,11.071275 0 0 1 10.98478,9.79009 l 0.0865,0 0,1.28119 0,7.19524 0,1.2812 0,19.47745 0,2.50294 2.44887,0 0,-31.538 0,-1.44608 -0.10546,0 a 13.521393,12.490794 0 0 0 -13.41473,-11.04694 z"
         style="fill:#ffc000;fill-opacity:1;stroke-width:8.79448795;stroke-miterlimit:4;stroke-dasharray:none" />
      <path
         id="rect4792"
         d="m 551.16552,727.61659 -1.46417,1.38593 -0.10884,-0.10281 0,53.86781 64.12917,0 0,-53.90392 -0.14706,0.13893 -1.46416,-1.38592 -0.1117,0 -1.4671,1.38592 -1.46417,-1.38592 -0.11169,0 -1.46416,1.38592 -1.46417,-1.38592 -0.11169,0 -1.46711,1.38592 -1.46416,-1.38592 -0.11168,0 -1.46418,1.38592 -1.46417,-1.38592 -0.11169,0 -1.4671,1.38592 -1.46417,-1.38592 -0.1117,0 -1.46417,1.38592 -1.46414,-1.38592 -0.11171,0 -1.46709,1.38592 -1.46418,-1.38592 -0.11169,0 -1.46417,1.38592 -1.46417,-1.38592 -0.1117,0 -1.4671,1.38592 -1.46415,-1.38592 -0.1117,0 -1.46417,1.38592 -1.46415,-1.38592 -0.11169,0 -1.46711,1.38592 -1.46417,-1.38592 -0.11169,0 -1.46416,1.38592 -1.46417,-1.38592 -0.11169,0 -1.46711,1.38592 -1.46415,-1.38592 -0.11169,0 -1.46418,1.38592 -1.46415,-1.38592 -0.11169,0 -1.46711,1.38592 -1.46416,-1.38592 -0.11171,0 -1.46415,1.38592 -1.4671,-1.38592 -0.11169,0 -1.46417,1.38592 -1.46416,-1.38592 -0.11168,0 -1.46418,1.38592 -1.46711,-1.38592 -0.11169,0 -1.46416,1.38592 -1.46417,-1.38592 -0.11169,0 -1.46415,1.38592 -1.4671,-1.38592 -0.1117,0 z"
         style="fill:#5090f0;fill-opacity:1;stroke-width:8.79448795;stroke-miterlimit:4;stroke-dasharray:none"
         inkscape:connector-curvature="0" />
      <rect
         style="fill:#427cd2;fill-opacity:1;stroke-width:8.79448795;stroke-miterlimit:4;stroke-dasharray:none"
         id="rect4796"
         width="64.175629"
         height="27.694046"
         x="549.59131"
         y="763.92255" />
    </g>
  </g>
</svg>
