<?xml version="1.0" encoding="UTF-8" standalone="no"?>
<!-- Created with Inkscape (http://www.inkscape.org/) -->

<svg
   xmlns:dc="http://purl.org/dc/elements/1.1/"
   xmlns:cc="http://creativecommons.org/ns#"
   xmlns:rdf="http://www.w3.org/1999/02/22-rdf-syntax-ns#"
   xmlns:svg="http://www.w3.org/2000/svg"
   xmlns="http://www.w3.org/2000/svg"
   xmlns:sodipodi="http://sodipodi.sourceforge.net/DTD/sodipodi-0.dtd"
   xmlns:inkscape="http://www.inkscape.org/namespaces/inkscape"
   width="256"
   height="256"
   viewBox="0 0 256.00001 256.00001"
   id="svg2"
   version="1.1"
   inkscape:version="0.91 r"
   sodipodi:docname="recipe_line.svg"
   inkscape:export-filename="/home/ryan/w/1egoman/bag/mobile/www/img/recipe.png"
   inkscape:export-xdpi="90"
   inkscape:export-ydpi="90">
  <defs
     id="defs4" />
  <sodipodi:namedview
     id="base"
     pagecolor="#ffffff"
     bordercolor="#666666"
     borderopacity="1.0"
     inkscape:pageopacity="0.0"
     inkscape:pageshadow="2"
     inkscape:zoom="2"
     inkscape:cx="315.47836"
     inkscape:cy="244.95735"
     inkscape:document-units="px"
     inkscape:current-layer="layer1"
     showgrid="false"
     inkscape:window-width="1920"
     inkscape:window-height="1004"
     inkscape:window-x="1920"
     inkscape:window-y="25"
     inkscape:window-maximized="1"
     fit-margin-top="0"
     fit-margin-left="0"
     fit-margin-right="0"
     fit-margin-bottom="0"
     units="px" />
  <metadata
     id="metadata7">
    <rdf:RDF>
      <cc:Work
         rdf:about="">
        <dc:format>image/svg+xml</dc:format>
        <dc:type
           rdf:resource="http://purl.org/dc/dcmitype/StillImage" />
        <dc:title />
      </cc:Work>
    </rdf:RDF>
  </metadata>
  <g
     inkscape:label="Layer 1"
     inkscape:groupmode="layer"
     id="layer1"
     transform="translate(-42.072845,-658.47635)">
    <path
       style="opacity:1;fill:none;fill-opacity:1;stroke:#bcbcbc;stroke-width:13.83885002;stroke-linecap:round;stroke-linejoin:round;stroke-miterlimit:4;stroke-dasharray:none;stroke-opacity:1"
       d="M 6.6367188 110.29688 A 121.3625 122.79741 0 0 0 67.318359 216.64258 A 121.3625 122.79741 0 0 0 95.462891 228.56836 L 95.462891 249.08008 L 160.53711 249.08008 L 160.53711 228.43945 A 121.3625 122.79741 0 0 0 188.68164 216.64258 A 121.3625 122.79741 0 0 0 249.36328 110.29688 L 128 110.29688 L 6.6367188 110.29688 z "
       transform="translate(42.072845,658.47635)"
       id="rect6183" />
    <g
       id="g6228"
       transform="translate(0,-2.5)">
      <g
         style="fill:none;fill-opacity:1;stroke:#bcbcbc;stroke-opacity:1"
         transform="matrix(0.19607109,0,0,0.12743767,-6.6536447,590.09926)"
         id="g6202">
        <path
           style="opacity:1;fill:none;fill-opacity:1;stroke:#bcbcbc;stroke-width:21.1092453;stroke-linecap:round;stroke-linejoin:round;stroke-miterlimit:4;stroke-dasharray:none;stroke-opacity:1"
           id="path6192"
           sodipodi:type="arc"
           sodipodi:cx="646.41779"
           sodipodi:cy="-504.31332"
           sodipodi:rx="76.944321"
           sodipodi:ry="78.746788"
           sodipodi:start="0"
           sodipodi:end="3.1415927"
           d="m 723.36211,-504.31332 a 76.944321,78.746788 0 0 1 -38.47217,68.19672 76.944321,78.746788 0 0 1 -76.94432,-10e-6 76.944321,78.746788 0 0 1 -38.47216,-68.19672"
           sodipodi:open="true"
           transform="matrix(0,1,-1,0,0,0)" />
        <path
           transform="matrix(0,1,1,0,0,0)"
           sodipodi:open="true"
           d="m 877.21568,501.26636 a 76.944321,78.746788 0 0 1 -38.47216,68.19672 76.944321,78.746788 0 0 1 -76.94432,0 76.944321,78.746788 0 0 1 -38.47216,-68.19673"
           sodipodi:end="3.1415927"
           sodipodi:start="0"
           sodipodi:ry="78.746788"
           sodipodi:rx="76.944321"
           sodipodi:cy="501.26636"
           sodipodi:cx="800.27136"
           sodipodi:type="arc"
           id="path6196"
           style="opacity:1;fill:none;fill-opacity:1;stroke:#bcbcbc;stroke-width:21.1092453;stroke-linecap:round;stroke-linejoin:round;stroke-miterlimit:4;stroke-dasharray:none;stroke-opacity:1" />
        <path
           transform="matrix(0,1,-1,0,0,0)"
           sodipodi:open="true"
           d="m 1030.9535,-504.31332 a 76.944321,78.746788 0 0 1 -38.47212,68.19672 76.944321,78.746788 0 0 1 -76.94433,-10e-6 76.944321,78.746788 0 0 1 -38.47215,-68.19672"
           sodipodi:end="3.1415927"
           sodipodi:start="0"
           sodipodi:ry="78.746788"
           sodipodi:rx="76.944321"
           sodipodi:cy="-504.31332"
           sodipodi:cx="954.00922"
           sodipodi:type="arc"
           id="path6198"
           style="opacity:1;fill:none;fill-opacity:1;stroke:#bcbcbc;stroke-width:21.1092453;stroke-linecap:round;stroke-linejoin:round;stroke-miterlimit:4;stroke-dasharray:none;stroke-opacity:1" />
        <path
           style="opacity:1;fill:none;fill-opacity:1;stroke:#bcbcbc;stroke-width:21.1092453;stroke-linecap:round;stroke-linejoin:round;stroke-miterlimit:4;stroke-dasharray:none;stroke-opacity:1"
           id="path6200"
           sodipodi:type="arc"
           sodipodi:cx="1107.8628"
           sodipodi:cy="501.26636"
           sodipodi:rx="76.944321"
           sodipodi:ry="78.746788"
           sodipodi:start="0"
           sodipodi:end="3.1415927"
           d="m 1184.8071,501.26636 a 76.944321,78.746788 0 0 1 -38.4721,68.19672 76.944321,78.746788 0 0 1 -76.9444,0 76.944321,78.746788 0 0 1 -38.4721,-68.19673"
           sodipodi:open="true"
           transform="matrix(0,1,1,0,0,0)" />
      </g>
      <g
         style="fill:none;fill-opacity:1;stroke:#bcbcbc;stroke-opacity:1"
         id="g6208"
         transform="matrix(0.19607109,0,0,0.12743767,142.84636,590.09926)">
        <path
           transform="matrix(0,1,-1,0,0,0)"
           sodipodi:open="true"
           d="m 723.36211,-504.31332 a 76.944321,78.746788 0 0 1 -38.47217,68.19672 76.944321,78.746788 0 0 1 -76.94432,-10e-6 76.944321,78.746788 0 0 1 -38.47216,-68.19672"
           sodipodi:end="3.1415927"
           sodipodi:start="0"
           sodipodi:ry="78.746788"
           sodipodi:rx="76.944321"
           sodipodi:cy="-504.31332"
           sodipodi:cx="646.41779"
           sodipodi:type="arc"
           id="path6210"
           style="opacity:1;fill:none;fill-opacity:1;stroke:#bcbcbc;stroke-width:21.1092453;stroke-linecap:round;stroke-linejoin:round;stroke-miterlimit:4;stroke-dasharray:none;stroke-opacity:1" />
        <path
           style="opacity:1;fill:none;fill-opacity:1;stroke:#bcbcbc;stroke-width:21.1092453;stroke-linecap:round;stroke-linejoin:round;stroke-miterlimit:4;stroke-dasharray:none;stroke-opacity:1"
           id="path6212"
           sodipodi:type="arc"
           sodipodi:cx="800.27136"
           sodipodi:cy="501.26636"
           sodipodi:rx="76.944321"
           sodipodi:ry="78.746788"
           sodipodi:start="0"
           sodipodi:end="3.1415927"
           d="m 877.21568,501.26636 a 76.944321,78.746788 0 0 1 -38.47216,68.19672 76.944321,78.746788 0 0 1 -76.94432,0 76.944321,78.746788 0 0 1 -38.47216,-68.19673"
           sodipodi:open="true"
           transform="matrix(0,1,1,0,0,0)" />
        <path
           style="opacity:1;fill:none;fill-opacity:1;stroke:#bcbcbc;stroke-width:21.1092453;stroke-linecap:round;stroke-linejoin:round;stroke-miterlimit:4;stroke-dasharray:none;stroke-opacity:1"
           id="path6214"
           sodipodi:type="arc"
           sodipodi:cx="954.00922"
           sodipodi:cy="-504.31332"
           sodipodi:rx="76.944321"
           sodipodi:ry="78.746788"
           sodipodi:start="0"
           sodipodi:end="3.1415927"
           d="m 1030.9535,-504.31332 a 76.944321,78.746788 0 0 1 -38.47212,68.19672 76.944321,78.746788 0 0 1 -76.94433,-10e-6 76.944321,78.746788 0 0 1 -38.47215,-68.19672"
           sodipodi:open="true"
           transform="matrix(0,1,-1,0,0,0)" />
        <path
           transform="matrix(0,1,1,0,0,0)"
           sodipodi:open="true"
           d="m 1184.8071,501.26636 a 76.944321,78.746788 0 0 1 -38.4721,68.19672 76.944321,78.746788 0 0 1 -76.9444,0 76.944321,78.746788 0 0 1 -38.4721,-68.19673"
           sodipodi:end="3.1415927"
           sodipodi:start="0"
           sodipodi:ry="78.746788"
           sodipodi:rx="76.944321"
           sodipodi:cy="501.26636"
           sodipodi:cx="1107.8628"
           sodipodi:type="arc"
           id="path6216"
           style="opacity:1;fill:none;fill-opacity:1;stroke:#bcbcbc;stroke-width:21.1092453;stroke-linecap:round;stroke-linejoin:round;stroke-miterlimit:4;stroke-dasharray:none;stroke-opacity:1" />
      </g>
      <g
         style="fill:none;fill-opacity:1;stroke:#bcbcbc;stroke-opacity:1"
         transform="matrix(0.19607109,0,0,0.12743767,69.84636,590.09926)"
         id="g6218">
        <path
           style="opacity:1;fill:none;fill-opacity:1;stroke:#bcbcbc;stroke-width:21.1092453;stroke-linecap:round;stroke-linejoin:round;stroke-miterlimit:4;stroke-dasharray:none;stroke-opacity:1"
           id="path6220"
           sodipodi:type="arc"
           sodipodi:cx="646.41779"
           sodipodi:cy="-504.31332"
           sodipodi:rx="76.944321"
           sodipodi:ry="78.746788"
           sodipodi:start="0"
           sodipodi:end="3.1415927"
           d="m 723.36211,-504.31332 a 76.944321,78.746788 0 0 1 -38.47217,68.19672 76.944321,78.746788 0 0 1 -76.94432,-10e-6 76.944321,78.746788 0 0 1 -38.47216,-68.19672"
           sodipodi:open="true"
           transform="matrix(0,1,-1,0,0,0)" />
        <path
           transform="matrix(0,1,1,0,0,0)"
           sodipodi:open="true"
           d="m 877.21568,501.26636 a 76.944321,78.746788 0 0 1 -38.47216,68.19672 76.944321,78.746788 0 0 1 -76.94432,0 76.944321,78.746788 0 0 1 -38.47216,-68.19673"
           sodipodi:end="3.1415927"
           sodipodi:start="0"
           sodipodi:ry="78.746788"
           sodipodi:rx="76.944321"
           sodipodi:cy="501.26636"
           sodipodi:cx="800.27136"
           sodipodi:type="arc"
           id="path6222"
           style="opacity:1;fill:none;fill-opacity:1;stroke:#bcbcbc;stroke-width:21.1092453;stroke-linecap:round;stroke-linejoin:round;stroke-miterlimit:4;stroke-dasharray:none;stroke-opacity:1" />
        <path
           transform="matrix(0,1,-1,0,0,0)"
           sodipodi:open="true"
           d="m 1030.9535,-504.31332 a 76.944321,78.746788 0 0 1 -38.47212,68.19672 76.944321,78.746788 0 0 1 -76.94433,-10e-6 76.944321,78.746788 0 0 1 -38.47215,-68.19672"
           sodipodi:end="3.1415927"
           sodipodi:start="0"
           sodipodi:ry="78.746788"
           sodipodi:rx="76.944321"
           sodipodi:cy="-504.31332"
           sodipodi:cx="954.00922"
           sodipodi:type="arc"
           id="path6224"
           style="opacity:1;fill:none;fill-opacity:1;stroke:#bcbcbc;stroke-width:21.1092453;stroke-linecap:round;stroke-linejoin:round;stroke-miterlimit:4;stroke-dasharray:none;stroke-opacity:1" />
        <path
           style="opacity:1;fill:none;fill-opacity:1;stroke:#bcbcbc;stroke-width:21.1092453;stroke-linecap:round;stroke-linejoin:round;stroke-miterlimit:4;stroke-dasharray:none;stroke-opacity:1"
           id="path6226"
           sodipodi:type="arc"
           sodipodi:cx="1107.8628"
           sodipodi:cy="501.26636"
           sodipodi:rx="76.944321"
           sodipodi:ry="78.746788"
           sodipodi:start="0"
           sodipodi:end="3.1415927"
           d="m 1184.8071,501.26636 a 76.944321,78.746788 0 0 1 -38.4721,68.19672 76.944321,78.746788 0 0 1 -76.9444,0 76.944321,78.746788 0 0 1 -38.4721,-68.19673"
           sodipodi:open="true"
           transform="matrix(0,1,1,0,0,0)" />
      </g>
    </g>
  </g>
</svg>
