<?xml version="1.0" encoding="UTF-8" standalone="no"?>
<!-- Created with Inkscape (http://www.inkscape.org/) -->

<svg
   xmlns:dc="http://purl.org/dc/elements/1.1/"
   xmlns:cc="http://creativecommons.org/ns#"
   xmlns:rdf="http://www.w3.org/1999/02/22-rdf-syntax-ns#"
   xmlns:svg="http://www.w3.org/2000/svg"
   xmlns="http://www.w3.org/2000/svg"
   xmlns:sodipodi="http://sodipodi.sourceforge.net/DTD/sodipodi-0.dtd"
   xmlns:inkscape="http://www.inkscape.org/namespaces/inkscape"
   width="256"
   height="256"
   viewBox="0 0 256.00001 256.00001"
   id="svg2"
   version="1.1"
   inkscape:version="0.91 r"
   sodipodi:docname="recipe.svg"
   inkscape:export-filename="/home/ryan/w/1egoman/bag/mobile/www/img/recipe.png"
   inkscape:export-xdpi="90"
   inkscape:export-ydpi="90">
  <defs
     id="defs4" />
  <sodipodi:namedview
     id="base"
     pagecolor="#ffffff"
     bordercolor="#666666"
     borderopacity="1.0"
     inkscape:pageopacity="0.0"
     inkscape:pageshadow="2"
     inkscape:zoom="4"
     inkscape:cx="187.07834"
     inkscape:cy="138.91125"
     inkscape:document-units="px"
     inkscape:current-layer="layer1"
     showgrid="false"
     inkscape:window-width="1920"
     inkscape:window-height="1004"
     inkscape:window-x="1920"
     inkscape:window-y="25"
     inkscape:window-maximized="1"
     fit-margin-top="0"
     fit-margin-left="0"
     fit-margin-right="0"
     fit-margin-bottom="0"
     units="px" />
  <metadata
     id="metadata7">
    <rdf:RDF>
      <cc:Work
         rdf:about="">
        <dc:format>image/svg+xml</dc:format>
        <dc:type
           rdf:resource="http://purl.org/dc/dcmitype/StillImage" />
        <dc:title></dc:title>
      </cc:Work>
    </rdf:RDF>
  </metadata>
  <g
     inkscape:label="Layer 1"
     inkscape:groupmode="layer"
     id="layer1"
     transform="translate(-42.072845,-658.47635)">
    <circle
       style="opacity:1;fill:#ffebd0;fill-opacity:1;stroke:none;stroke-width:1;stroke-linecap:round;stroke-miterlimit:4;stroke-dasharray:none;stroke-opacity:1"
       id="path4264"
       cx="170.07285"
       cy="786.47638"
       r="128" />
    <circle
       r="80.138573"
       cy="786.47638"
       cx="170.07285"
       id="circle5145"
       style="opacity:1;fill:#427cd2;fill-opacity:1;stroke:none;stroke-width:1;stroke-linecap:round;stroke-miterlimit:4;stroke-dasharray:none;stroke-opacity:1" />
    <circle
       style="opacity:1;fill:#5090f0;fill-opacity:1;stroke:none;stroke-width:1;stroke-linecap:round;stroke-miterlimit:4;stroke-dasharray:none;stroke-opacity:1"
       id="circle5147"
       cx="170.07285"
       cy="786.47638"
       r="55.960953" />
    <g
       id="g5198"
       transform="matrix(0.47931228,0,0,0.47931228,182.80227,372.46568)">
      <path
         sodipodi:nodetypes="cscccsccsccc"
         inkscape:connector-curvature="0"
         id="path5188"
         d="m -38.183775,841.64435 c 0,0 -29.371621,-5.47114 -34.29468,-25.45584 -3.687502,-14.96907 -4.24264,-39.24443 -4.24264,-39.24443 l 53.740116,27.57717 26.870058,-46.66905 c 0,0 8.890828,19.31469 10.606602,25.8094 2.108915,7.98286 3.573084,21.23573 3.535533,21.2132 l 1.414214,7.77817 c 0,0 1.414214,-7.07106 19.445437,-0.7071 18.031222,6.36396 39.951533,29.69848 39.951533,29.69848 l -47.729708,9.19239 z"
         style="fill:#41c19d;fill-opacity:1;fill-rule:evenodd;stroke:none;stroke-width:1px;stroke-linecap:butt;stroke-linejoin:round;stroke-opacity:1" />
      <path
         sodipodi:nodetypes="cscsssssccssc"
         inkscape:connector-curvature="0"
         id="path5190"
         d="m -25.677155,818.47635 c 0,0 1,-8.25 11.5,-11.25 10.5,-3 19.75,0.25 19.75,0.25 0,0 8,-3.75 15.25,-1.5 7.25,2.25 -0.11923,11.05678 8.5,26.25 7.375,13 15.330634,9.76657 12.25,16.75 -6.17423,13.99623 -13.25,10 -15,12 -1.75,2 -7.75,7.25 -8.75,7.75 -1,0.5 -12,0.25 -12.5,-1.5 -16.786967,9.76477 -26.140083,11.30931 -27.75,-8.5 -0.537756,-7.01722 -5.249038,6.00601 -13,-6.75 -7.748034,-12.75119 -4,-23.25 -2,-26.75 2,-3.5 6.75,-8.75 11.75,-6.75 z"
         style="fill:#ffb200;fill-opacity:1;fill-rule:evenodd;stroke:none;stroke-width:1px;stroke-linecap:butt;stroke-linejoin:miter;stroke-opacity:1" />
    </g>
    <path
       style="opacity:1;fill:#f05f50;fill-opacity:1;stroke:none;stroke-width:1.18900001;stroke-linecap:round;stroke-linejoin:round;stroke-miterlimit:4;stroke-dasharray:none;stroke-opacity:1"
       d="m 167.98867,804.70116 a 20.751861,13.40757 15.018463 0 0 -12.2884,-2.29636 15.21803,9.8322171 15.018463 0 0 -5.09325,-2.95106 15.21803,9.8322171 15.018463 0 0 -19.22947,2.91756 15.21803,9.8322171 15.018463 0 0 5.14755,12.41298 8.6960184,5.6184105 15.018463 0 0 -0.48206,0.62134 8.6960184,5.6184105 15.018463 0 0 4.95897,8.14194 8.6960184,5.6184105 15.018463 0 0 6.12642,0.89631 20.751861,13.40757 15.018463 0 0 6.47059,3.66103 20.751861,13.40757 15.018463 0 0 26.2212,-3.97796 20.751861,13.40757 15.018463 0 0 -11.83153,-19.42577 z"
       id="path5205"
       inkscape:connector-curvature="0" />
  </g>
</svg>
