<?xml version="1.0" encoding="UTF-8" standalone="no"?>
<!-- Created with Inkscape (http://www.inkscape.org/) -->

<svg
   xmlns:dc="http://purl.org/dc/elements/1.1/"
   xmlns:cc="http://creativecommons.org/ns#"
   xmlns:rdf="http://www.w3.org/1999/02/22-rdf-syntax-ns#"
   xmlns:svg="http://www.w3.org/2000/svg"
   xmlns="http://www.w3.org/2000/svg"
   xmlns:sodipodi="http://sodipodi.sourceforge.net/DTD/sodipodi-0.dtd"
   xmlns:inkscape="http://www.inkscape.org/namespaces/inkscape"
   width="148"
   height="148"
   viewBox="0 0 148.00001 147.99999"
   id="svg6232"
   version="1.1"
   inkscape:version="0.91 r"
   sodipodi:docname="sort_nosort.svg">
  <defs
     id="defs6234" />
  <sodipodi:namedview
     id="base"
     pagecolor="#ffffff"
     bordercolor="#666666"
     borderopacity="1.0"
     inkscape:pageopacity="0.0"
     inkscape:pageshadow="2"
     inkscape:zoom="2.8"
     inkscape:cx="145.18354"
     inkscape:cy="145.668"
     inkscape:document-units="px"
     inkscape:current-layer="layer1"
     showgrid="false"
     fit-margin-top="0"
     fit-margin-left="0"
     fit-margin-right="0"
     fit-margin-bottom="0"
     units="px"
     inkscape:window-width="1920"
     inkscape:window-height="1004"
     inkscape:window-x="1920"
     inkscape:window-y="25"
     inkscape:window-maximized="1" />
  <metadata
     id="metadata6237">
    <rdf:RDF>
      <cc:Work
         rdf:about="">
        <dc:format>image/svg+xml</dc:format>
        <dc:type
           rdf:resource="http://purl.org/dc/dcmitype/StillImage" />
        <dc:title></dc:title>
      </cc:Work>
    </rdf:RDF>
  </metadata>
  <g
     inkscape:label="Layer 1"
     inkscape:groupmode="layer"
     id="layer1"
     transform="translate(822.57142,-671.2878)">
    <g
       transform="translate(-871.37979,557.16635)"
       id="g6150">
      <rect
         y="118.89254"
         x="48.808372"
         height="8"
         width="148"
         id="rect4722"
         style="opacity:1;fill:#e3deda;fill-opacity:1;stroke:none;stroke-width:1;stroke-linecap:round;stroke-linejoin:round;stroke-miterlimit:4;stroke-dasharray:none;stroke-opacity:1" />
      <g
         style="opacity:1"
         transform="matrix(0.19108411,0,0,0.19108411,41.007237,36.150684)"
         id="g4324">
        <g
           id="g4296">
          <path
             style="fill:#f6e8e7;fill-opacity:1;fill-rule:evenodd;stroke:none;stroke-width:1px;stroke-linecap:butt;stroke-linejoin:miter;stroke-opacity:1"
             d="m 211.23633,508.97852 0,18.38476 c 0,0 -3.00449,12.19641 -6.7168,20.32813 -3.71231,8.13173 -7.42582,15.37922 -7.07226,21.5664 0.35355,6.18719 0,79.19727 0,79.19727 l 57.91015,0 c 0,0 -0.35355,-73.01008 0,-79.19727 0.35356,-6.18718 -3.358,-13.43467 -7.07031,-21.5664 -3.71231,-8.13172 -6.7168,-20.32813 -6.7168,-20.32813 l 0,-18.38476 z"
             id="path4298"
             inkscape:connector-curvature="0"
             sodipodi:nodetypes="ccssccssccc" />
          <rect
             y="-504.06293"
             x="210.8197"
             height="7.9763718"
             width="31.165293"
             id="rect4300"
             style="opacity:1;fill:#f05f50;fill-opacity:1;stroke:none;stroke-width:1;stroke-linecap:round;stroke-miterlimit:4;stroke-dasharray:none;stroke-opacity:1"
             transform="scale(1,-1)"
             rx="1.5175052"
             ry="1.5696876" />
          <rect
             style="opacity:1;fill:#f6e8e7;fill-opacity:1;stroke:none;stroke-width:1;stroke-linecap:round;stroke-miterlimit:4;stroke-dasharray:none;stroke-opacity:1"
             id="rect4302"
             width="33.375"
             height="7"
             x="209.71484"
             y="502.03271" />
        </g>
        <path
           inkscape:connector-curvature="0"
           style="fill:#e3deda;fill-opacity:1;fill-rule:evenodd;stroke:none;stroke-width:1px;stroke-linecap:butt;stroke-linejoin:miter;stroke-opacity:1"
           d="m 226.40234,508.97852 0,139.47656 28.95508,0 c 0,0 -0.35355,-73.01008 0,-79.19727 0.35356,-6.18718 -3.358,-13.43467 -7.07031,-21.5664 -3.71231,-8.13172 -6.7168,-20.32813 -6.7168,-20.32813 l 0,-18.38476 -15.16797,0 z"
           id="path4277" />
        <path
           inkscape:connector-curvature="0"
           style="opacity:1;fill:#f05f50;fill-opacity:1;stroke:none;stroke-width:1;stroke-linecap:round;stroke-miterlimit:4;stroke-dasharray:none;stroke-opacity:1"
           d="m 226.40234,496.08594 0,7.97656 14.06446,0 c 0.84069,0 1.51758,-0.69875 1.51758,-1.56836 l 0,-4.83789 c 0,-0.86961 -0.67689,-1.57031 -1.51758,-1.57031 l -14.06446,0 z"
           id="rect4285" />
        <path
           inkscape:connector-curvature="0"
           style="opacity:1;fill:#e3deda;fill-opacity:1;stroke:none;stroke-width:1;stroke-linecap:round;stroke-miterlimit:4;stroke-dasharray:none;stroke-opacity:1"
           d="m 226.40234,502.0332 0,7 16.6875,0 0,-7 -16.6875,0 z"
           id="rect4283" />
      </g>
      <g
         style="opacity:1"
         id="g5481"
         transform="matrix(0.89135599,0,0,1,-124.84381,-79.099026)">
        <rect
           transform="scale(-1,1)"
           y="251.86777"
           x="-360.85715"
           height="3.2442889"
           width="96"
           id="rect5483"
           style="fill:#5c5c5c;fill-opacity:1;stroke-width:8.79448795;stroke-miterlimit:4;stroke-dasharray:none" />
        <rect
           transform="scale(-1,1)"
           style="fill:#5c5c5c;fill-opacity:1;stroke-width:8.79448795;stroke-miterlimit:4;stroke-dasharray:none"
           id="rect5485"
           width="96"
           height="3.2442889"
           x="-360.85715"
           y="258.06174" />
        <rect
           y="264.16052"
           x="-360.85715"
           height="3.2442889"
           width="96"
           id="rect5487"
           style="fill:#5090f0;fill-opacity:1;stroke-width:8.79448795;stroke-miterlimit:4;stroke-dasharray:none"
           transform="scale(-1,1)" />
      </g>
      <g
         style="opacity:1"
         transform="translate(-164.04877,-156.47403)"
         id="g5595">
        <g
           id="g5591">
          <path
             inkscape:connector-curvature="0"
             id="path5544"
             d="m 234.36523,338.91993 0,0.11132 -5.83007,0 a 6.6481815,4.3734575 0 0 0 -0.55274,1.74219 6.6481815,4.3734575 0 0 0 6.38281,4.36719 l 0,0.002 0.0781,0 a 6.6481815,4.3734575 0 0 0 0.1875,0.004 6.6481815,4.3734575 0 0 0 0.12109,-0.004 l 27.0625,0 a 6.6481815,4.3734575 0 0 0 0.1875,0.004 6.6481815,4.3734575 0 0 0 6.64844,-4.37305 6.6481815,4.3734575 0 0 0 -0.55859,-1.74219 l -6.01758,0 0,-0.11132 -27.70899,0 z"
             style="opacity:1;fill:#ffc000;fill-opacity:1;stroke:none;stroke-width:1;stroke-linecap:round;stroke-miterlimit:4;stroke-dasharray:none;stroke-opacity:1" />
          <path
             inkscape:connector-curvature="0"
             id="path5582"
             d="m 255.90234,338.91992 0,0.10352 0,3.46875 0,2.65429 5.88477,0 0,-0.0195 a 6.6481815,4.3734575 0 0 0 0.21484,0.004 6.6481815,4.3734575 0 0 0 6.64844,-4.37305 6.6481815,4.3734575 0 0 0 -0.55859,-1.74219 l -6.30469,0 0,-0.0957 -5.88477,0 z"
             style="opacity:1;fill:#ffb200;fill-opacity:1;stroke:none;stroke-width:1;stroke-linecap:round;stroke-miterlimit:4;stroke-dasharray:none;stroke-opacity:1" />
        </g>
        <g
           id="g4259"
           transform="matrix(0.37011895,0,0,0.16716224,174.51471,192.0574)">
          <path
             inkscape:connector-curvature="0"
             id="path4233"
             d="m 199.40301,826.79518 a 57.982758,26.162951 0 0 1 57.98438,26.16211 57.982758,26.162951 0 0 1 -4.87305,10.41992 l -106.26953,0 a 57.982758,26.162951 0 0 1 -4.82422,-10.41992 57.982758,26.162951 0 0 1 57.98242,-26.16211 z"
             style="opacity:1;fill:#ffc000;fill-opacity:1;stroke:none;stroke-width:1;stroke-linecap:round;stroke-miterlimit:4;stroke-dasharray:none;stroke-opacity:1" />
          <path
             inkscape:connector-curvature="0"
             id="path4238"
             d="m 219.89681,828.5157 a 57.982758,26.162951 0 0 1 37.49023,24.44141 57.982758,26.162951 0 0 1 -4.87304,10.41992 l -32.61719,0 0,-34.86133 z"
             style="opacity:1;fill:#ffb200;fill-opacity:1;stroke:none;stroke-width:1;stroke-linecap:round;stroke-miterlimit:4;stroke-dasharray:none;stroke-opacity:1" />
          <path
             id="path4249"
             d="m 199.40234,826.79492 a 57.982758,26.162951 0 0 0 -0.084,0.002 30,3 60 0 0 15.43164,20.79687 30,3 60 0 0 -8.55078,-20.59961 57.982758,26.162951 0 0 0 -6.79688,-0.19922 z m -11.27929,0.52539 a 57.982758,26.162951 0 0 0 -6.29883,0.73828 30,3 60 0 0 14.67578,19.53516 30,3 60 0 0 -8.37695,-20.27344 z m -18.31641,3.17383 a 57.982758,26.162951 0 0 0 -5.46289,1.65234 30,3 60 0 0 12.15625,15.44727 30,3 60 0 0 -6.69336,-17.09961 z"
             style="opacity:1;fill:#ffb200;fill-opacity:1;stroke:none;stroke-width:1;stroke-linecap:round;stroke-miterlimit:4;stroke-dasharray:none;stroke-opacity:1"
             inkscape:connector-curvature="0" />
        </g>
        <rect
           style="opacity:1;fill:#f05f50;fill-opacity:1;stroke:none;stroke-width:1;stroke-linecap:round;stroke-linejoin:round;stroke-miterlimit:4;stroke-dasharray:none;stroke-opacity:1"
           id="rect5521"
           width="36.1875"
           height="2"
           x="230.22415"
           y="336.38147" />
        <rect
           y="-339.03455"
           x="229.41165"
           height="0.68113124"
           width="37.8125"
           id="rect5523"
           style="opacity:1;fill:#41c19d;fill-opacity:1;stroke:none;stroke-width:1;stroke-linecap:round;stroke-linejoin:round;stroke-miterlimit:4;stroke-dasharray:none;stroke-opacity:1"
           transform="scale(1,-1)" />
      </g>
      <g
         style="opacity:1"
         id="g5877"
         transform="matrix(0.53596117,0,0,0.53596117,-166.26378,-68.740753)">
        <circle
           r="11.313708"
           cy="382.02496"
           cx="412.5968"
           id="circle5879"
           style="opacity:1;fill:#e3ddda;fill-opacity:0.89411765;stroke:none;stroke-width:1;stroke-linecap:round;stroke-linejoin:round;stroke-miterlimit:4;stroke-dasharray:none;stroke-opacity:1" />
      </g>
      <g
         style="opacity:1"
         id="g5889"
         transform="matrix(0.53596117,0,0,0.53596117,-166.26378,-35.835056)">
        <circle
           r="11.313708"
           cy="382.02496"
           cx="412.5968"
           id="circle5891"
           style="opacity:1;fill:#5090f0;fill-opacity:1;stroke:none;stroke-width:1;stroke-linecap:round;stroke-linejoin:round;stroke-miterlimit:4;stroke-dasharray:none;stroke-opacity:1" />
        <path
           inkscape:connector-curvature="0"
           id="path5893"
           d="m 418.42428,377.86337 -8.33359,8.33359 -3.32136,-3.32136"
           style="fill:none;fill-rule:evenodd;stroke:#ffffff;stroke-width:2.04964685;stroke-linecap:round;stroke-linejoin:round;stroke-miterlimit:4;stroke-dasharray:none;stroke-opacity:1" />
      </g>
      <g
         style="opacity:1"
         id="g5907"
         transform="matrix(0.89135599,0,0,1,-124.84381,-117.45852)">
        <rect
           style="fill:#5c5c5c;fill-opacity:1;stroke-width:8.79448795;stroke-miterlimit:4;stroke-dasharray:none"
           id="rect5909"
           width="96"
           height="3.2442889"
           x="-360.85715"
           y="251.86777"
           transform="scale(-1,1)" />
        <rect
           y="258.06174"
           x="-360.85715"
           height="3.2442889"
           width="96"
           id="rect5911"
           style="fill:#5c5c5c;fill-opacity:1;stroke-width:8.79448795;stroke-miterlimit:4;stroke-dasharray:none"
           transform="scale(-1,1)" />
        <rect
           transform="scale(-1,1)"
           style="fill:#ffc000;fill-opacity:1;stroke-width:8.79448795;stroke-miterlimit:4;stroke-dasharray:none"
           id="rect5913"
           width="96"
           height="3.2442889"
           x="-360.85715"
           y="264.16052" />
      </g>
    </g>
  </g>
</svg>
