<?xml version="1.0" encoding="UTF-8" standalone="no"?>
<!-- Created with Inkscape (http://www.inkscape.org/) -->

<svg
   xmlns:dc="http://purl.org/dc/elements/1.1/"
   xmlns:cc="http://creativecommons.org/ns#"
   xmlns:rdf="http://www.w3.org/1999/02/22-rdf-syntax-ns#"
   xmlns:svg="http://www.w3.org/2000/svg"
   xmlns="http://www.w3.org/2000/svg"
   xmlns:sodipodi="http://sodipodi.sourceforge.net/DTD/sodipodi-0.dtd"
   xmlns:inkscape="http://www.inkscape.org/namespaces/inkscape"
   width="210mm"
   height="297mm"
   viewBox="0 0 744.09448819 1052.3622047"
   id="svg4174"
   version="1.1"
   inkscape:version="0.91 r"
   sodipodi:docname="sorts.svg">
  <defs
     id="defs4176" />
  <sodipodi:namedview
     id="base"
     pagecolor="#ffffff"
     bordercolor="#666666"
     borderopacity="1.0"
     inkscape:pageopacity="0.0"
     inkscape:pageshadow="2"
     inkscape:zoom="4"
     inkscape:cx="225.6924"
     inkscape:cy="576.76144"
     inkscape:document-units="px"
     inkscape:current-layer="layer1"
     showgrid="false"
     inkscape:window-width="1920"
     inkscape:window-height="1004"
     inkscape:window-x="1920"
     inkscape:window-y="25"
     inkscape:window-maximized="1" />
  <metadata
     id="metadata4179">
    <rdf:RDF>
      <cc:Work
         rdf:about="">
        <dc:format>image/svg+xml</dc:format>
        <dc:type
           rdf:resource="http://purl.org/dc/dcmitype/StillImage" />
        <dc:title></dc:title>
      </cc:Work>
    </rdf:RDF>
  </metadata>
  <g
     inkscape:label="Layer 1"
     inkscape:groupmode="layer"
     id="layer1">
    <rect
       style="opacity:1;fill:#e3deda;fill-opacity:1;stroke:none;stroke-width:1;stroke-linecap:round;stroke-linejoin:round;stroke-miterlimit:4;stroke-dasharray:none;stroke-opacity:1"
       id="rect4722"
       width="148"
       height="8"
       x="48.808372"
       y="118.89254" />
    <g
       id="g4324"
       transform="matrix(0.19108411,0,0,0.19108411,41.007237,36.150684)"
       style="opacity:1">
      <g
         id="g4296"
         style="">
        <path
           sodipodi:nodetypes="ccssccssccc"
           inkscape:connector-curvature="0"
           id="path4298"
           d="m 211.23633,508.97852 0,18.38476 c 0,0 -3.00449,12.19641 -6.7168,20.32813 -3.71231,8.13173 -7.42582,15.37922 -7.07226,21.5664 0.35355,6.18719 0,79.19727 0,79.19727 l 57.91015,0 c 0,0 -0.35355,-73.01008 0,-79.19727 0.35356,-6.18718 -3.358,-13.43467 -7.07031,-21.5664 -3.71231,-8.13172 -6.7168,-20.32813 -6.7168,-20.32813 l 0,-18.38476 z"
           style="fill:#f6e8e7;fill-opacity:1;fill-rule:evenodd;stroke:none;stroke-width:1px;stroke-linecap:butt;stroke-linejoin:miter;stroke-opacity:1" />
        <rect
           ry="1.5696876"
           rx="1.5175052"
           transform="scale(1,-1)"
           style="opacity:1;fill:#f05f50;fill-opacity:1;stroke:none;stroke-width:1;stroke-linecap:round;stroke-miterlimit:4;stroke-dasharray:none;stroke-opacity:1"
           id="rect4300"
           width="31.165293"
           height="7.9763718"
           x="210.8197"
           y="-504.06293" />
        <rect
           y="502.03271"
           x="209.71484"
           height="7"
           width="33.375"
           id="rect4302"
           style="opacity:1;fill:#f6e8e7;fill-opacity:1;stroke:none;stroke-width:1;stroke-linecap:round;stroke-miterlimit:4;stroke-dasharray:none;stroke-opacity:1" />
      </g>
      <path
         id="path4277"
         d="m 226.40234,508.97852 0,139.47656 28.95508,0 c 0,0 -0.35355,-73.01008 0,-79.19727 0.35356,-6.18718 -3.358,-13.43467 -7.07031,-21.5664 -3.71231,-8.13172 -6.7168,-20.32813 -6.7168,-20.32813 l 0,-18.38476 -15.16797,0 z"
         style="fill:#e3deda;fill-opacity:1;fill-rule:evenodd;stroke:none;stroke-width:1px;stroke-linecap:butt;stroke-linejoin:miter;stroke-opacity:1"
         inkscape:connector-curvature="0" />
      <path
         id="rect4285"
         d="m 226.40234,496.08594 0,7.97656 14.06446,0 c 0.84069,0 1.51758,-0.69875 1.51758,-1.56836 l 0,-4.83789 c 0,-0.86961 -0.67689,-1.57031 -1.51758,-1.57031 l -14.06446,0 z"
         style="opacity:1;fill:#f05f50;fill-opacity:1;stroke:none;stroke-width:1;stroke-linecap:round;stroke-miterlimit:4;stroke-dasharray:none;stroke-opacity:1"
         inkscape:connector-curvature="0" />
      <path
         id="rect4283"
         d="m 226.40234,502.0332 0,7 16.6875,0 0,-7 -16.6875,0 z"
         style="opacity:1;fill:#e3deda;fill-opacity:1;stroke:none;stroke-width:1;stroke-linecap:round;stroke-miterlimit:4;stroke-dasharray:none;stroke-opacity:1"
         inkscape:connector-curvature="0" />
    </g>
    <g
       transform="matrix(0.89135599,0,0,1,-124.84381,-79.099026)"
       id="g5481"
       style="opacity:1">
      <rect
         style="fill:#5c5c5c;fill-opacity:1;stroke-width:8.79448795;stroke-miterlimit:4;stroke-dasharray:none"
         id="rect5483"
         width="96"
         height="3.2442889"
         x="-360.85715"
         y="251.86777"
         transform="scale(-1,1)" />
      <rect
         y="258.06174"
         x="-360.85715"
         height="3.2442889"
         width="96"
         id="rect5485"
         style="fill:#5c5c5c;fill-opacity:1;stroke-width:8.79448795;stroke-miterlimit:4;stroke-dasharray:none"
         transform="scale(-1,1)" />
      <rect
         transform="scale(-1,1)"
         style="fill:#5090f0;fill-opacity:1;stroke-width:8.79448795;stroke-miterlimit:4;stroke-dasharray:none"
         id="rect5487"
         width="96"
         height="3.2442889"
         x="-360.85715"
         y="264.16052" />
    </g>
    <g
       id="g5595"
       transform="translate(-164.04877,-156.47403)"
       style="opacity:1">
      <g
         id="g5591"
         style="">
        <path
           style="opacity:1;fill:#ffc000;fill-opacity:1;stroke:none;stroke-width:1;stroke-linecap:round;stroke-miterlimit:4;stroke-dasharray:none;stroke-opacity:1"
           d="m 234.36523,338.91993 0,0.11132 -5.83007,0 a 6.6481815,4.3734575 0 0 0 -0.55274,1.74219 6.6481815,4.3734575 0 0 0 6.38281,4.36719 l 0,0.002 0.0781,0 a 6.6481815,4.3734575 0 0 0 0.1875,0.004 6.6481815,4.3734575 0 0 0 0.12109,-0.004 l 27.0625,0 a 6.6481815,4.3734575 0 0 0 0.1875,0.004 6.6481815,4.3734575 0 0 0 6.64844,-4.37305 6.6481815,4.3734575 0 0 0 -0.55859,-1.74219 l -6.01758,0 0,-0.11132 -27.70899,0 z"
           id="path5544"
           inkscape:connector-curvature="0" />
        <path
           style="opacity:1;fill:#ffb200;fill-opacity:1;stroke:none;stroke-width:1;stroke-linecap:round;stroke-miterlimit:4;stroke-dasharray:none;stroke-opacity:1"
           d="m 255.90234,338.91992 0,0.10352 0,3.46875 0,2.65429 5.88477,0 0,-0.0195 a 6.6481815,4.3734575 0 0 0 0.21484,0.004 6.6481815,4.3734575 0 0 0 6.64844,-4.37305 6.6481815,4.3734575 0 0 0 -0.55859,-1.74219 l -6.30469,0 0,-0.0957 -5.88477,0 z"
           id="path5582"
           inkscape:connector-curvature="0" />
      </g>
      <g
         transform="matrix(0.37011895,0,0,0.16716224,174.51471,192.0574)"
         id="g4259"
         style="">
        <path
           style="opacity:1;fill:#ffc000;fill-opacity:1;stroke:none;stroke-width:1;stroke-linecap:round;stroke-miterlimit:4;stroke-dasharray:none;stroke-opacity:1"
           d="m 199.40301,826.79518 a 57.982758,26.162951 0 0 1 57.98438,26.16211 57.982758,26.162951 0 0 1 -4.87305,10.41992 l -106.26953,0 a 57.982758,26.162951 0 0 1 -4.82422,-10.41992 57.982758,26.162951 0 0 1 57.98242,-26.16211 z"
           id="path4233"
           inkscape:connector-curvature="0" />
        <path
           style="opacity:1;fill:#ffb200;fill-opacity:1;stroke:none;stroke-width:1;stroke-linecap:round;stroke-miterlimit:4;stroke-dasharray:none;stroke-opacity:1"
           d="m 219.89681,828.5157 a 57.982758,26.162951 0 0 1 37.49023,24.44141 57.982758,26.162951 0 0 1 -4.87304,10.41992 l -32.61719,0 0,-34.86133 z"
           id="path4238"
           inkscape:connector-curvature="0" />
        <path
           inkscape:connector-curvature="0"
           style="opacity:1;fill:#ffb200;fill-opacity:1;stroke:none;stroke-width:1;stroke-linecap:round;stroke-miterlimit:4;stroke-dasharray:none;stroke-opacity:1"
           d="m 199.40234,826.79492 a 57.982758,26.162951 0 0 0 -0.084,0.002 30,3 60 0 0 15.43164,20.79687 30,3 60 0 0 -8.55078,-20.59961 57.982758,26.162951 0 0 0 -6.79688,-0.19922 z m -11.27929,0.52539 a 57.982758,26.162951 0 0 0 -6.29883,0.73828 30,3 60 0 0 14.67578,19.53516 30,3 60 0 0 -8.37695,-20.27344 z m -18.31641,3.17383 a 57.982758,26.162951 0 0 0 -5.46289,1.65234 30,3 60 0 0 12.15625,15.44727 30,3 60 0 0 -6.69336,-17.09961 z"
           id="path4249" />
      </g>
      <rect
         y="336.38147"
         x="230.22415"
         height="2"
         width="36.1875"
         id="rect5521"
         style="opacity:1;fill:#f05f50;fill-opacity:1;stroke:none;stroke-width:1;stroke-linecap:round;stroke-linejoin:round;stroke-miterlimit:4;stroke-dasharray:none;stroke-opacity:1" />
      <rect
         transform="scale(1,-1)"
         style="opacity:1;fill:#41c19d;fill-opacity:1;stroke:none;stroke-width:1;stroke-linecap:round;stroke-linejoin:round;stroke-miterlimit:4;stroke-dasharray:none;stroke-opacity:1"
         id="rect5523"
         width="37.8125"
         height="0.68113124"
         x="229.41165"
         y="-339.03455" />
    </g>
    <rect
       style="opacity:1;fill:#e3deda;fill-opacity:1;stroke:none;stroke-width:1;stroke-linecap:round;stroke-linejoin:round;stroke-miterlimit:4;stroke-dasharray:none;stroke-opacity:1"
       id="rect5625"
       width="148"
       height="8"
       x="50.072895"
       y="425.86417" />
    <g
       id="g5627"
       transform="matrix(0.37011895,0,0,0.37011895,11.73044,191.30156)"
       style="opacity:1">
      <path
         inkscape:connector-curvature="0"
         id="path5629"
         d="m 199.40301,826.79518 a 57.982758,26.162951 0 0 1 57.98438,26.16211 57.982758,26.162951 0 0 1 -4.87305,10.41992 l -106.26953,0 a 57.982758,26.162951 0 0 1 -4.82422,-10.41992 57.982758,26.162951 0 0 1 57.98242,-26.16211 z"
         style="opacity:1;fill:#ffc000;fill-opacity:1;stroke:none;stroke-width:1;stroke-linecap:round;stroke-miterlimit:4;stroke-dasharray:none;stroke-opacity:1" />
      <path
         inkscape:connector-curvature="0"
         id="path5631"
         d="m 219.89681,828.5157 a 57.982758,26.162951 0 0 1 37.49023,24.44141 57.982758,26.162951 0 0 1 -4.87304,10.41992 l -32.61719,0 0,-34.86133 z"
         style="opacity:1;fill:#ffb200;fill-opacity:1;stroke:none;stroke-width:1;stroke-linecap:round;stroke-miterlimit:4;stroke-dasharray:none;stroke-opacity:1" />
      <path
         id="path5633"
         d="m 199.40234,826.79492 a 57.982758,26.162951 0 0 0 -0.084,0.002 30,3 60 0 0 15.43164,20.79687 30,3 60 0 0 -8.55078,-20.59961 57.982758,26.162951 0 0 0 -6.79688,-0.19922 z m -11.27929,0.52539 a 57.982758,26.162951 0 0 0 -6.29883,0.73828 30,3 60 0 0 14.67578,19.53516 30,3 60 0 0 -8.37695,-20.27344 z m -18.31641,3.17383 a 57.982758,26.162951 0 0 0 -5.46289,1.65234 30,3 60 0 0 12.15625,15.44727 30,3 60 0 0 -6.69336,-17.09961 z"
         style="opacity:1;fill:#ffb200;fill-opacity:1;stroke:none;stroke-width:1;stroke-linecap:round;stroke-miterlimit:4;stroke-dasharray:none;stroke-opacity:1"
         inkscape:connector-curvature="0" />
    </g>
    <g
       id="g5635"
       transform="matrix(0.06476239,0,0,0.06476239,66.57071,530.44287)"
       style="opacity:1">
      <path
         inkscape:connector-curvature="0"
         id="path5637"
         d="M 232.2807,600.19592 C 211.16572,592.67437 182.62251,572.20376 158.21406,547.0768 119.73539,507.46543 97.376635,465.08495 87.624748,413.27647 c -1.440954,-7.65532 -1.802791,-14.89337 -1.812049,-36.24765 -0.01016,-23.43651 0.268747,-28.23941 2.292784,-39.48271 10.208682,-56.7081 35.593707,-86.1122 84.123907,-97.44277 18.97803,-4.43089 46.51556,-5.16704 62.58419,-1.67305 18.3601,3.99224 40.8771,15.13556 54.17259,26.80916 l 3.34165,2.93401 7.81108,-5.84938 c 14.70309,-11.01048 30.42391,-18.68816 47.9329,-23.40931 7.56275,-2.03924 10.78421,-2.30043 27.68918,-2.2451 22.18775,0.0726 33.48202,1.68771 50.13988,7.16999 39.44099,12.98047 63.03023,44.18751 71.19001,94.17974 3.81537,23.3755 3.58674,55.08707 -0.57523,79.78802 -9.81463,58.24903 -48.81953,118.2023 -103.71293,159.41407 -37.06223,27.82483 -57.20251,31.58477 -86.64623,16.17578 -6.23287,-3.26189 -12.26205,-5.93072 -13.39818,-5.93072 -1.13611,0 -7.67763,2.88909 -14.53669,6.42021 -13.47691,6.93804 -20.07172,8.69942 -32.43051,8.66175 -4.6808,-0.0143 -9.11248,-0.78597 -13.5104,-2.35259 z"
         style="opacity:1;fill:#f05f50;fill-opacity:1;stroke:none;stroke-width:1;stroke-linecap:round;stroke-miterlimit:4;stroke-dasharray:none;stroke-opacity:1" />
      <path
         inkscape:connector-curvature="0"
         id="path5639"
         d="m 292.55655,237.24486 0,-50.20458"
         style="fill:#5b5c5c;fill-opacity:1;fill-rule:evenodd;stroke:#5b5c5c;stroke-width:16;stroke-linecap:round;stroke-linejoin:miter;stroke-miterlimit:4;stroke-dasharray:none;stroke-opacity:1" />
      <path
         id="path5641"
         d="m 370.02734,236.66602 c -12.04501,0.0408 -15.33767,0.46371 -21.95507,2.24804 -17.50899,4.72115 -33.23051,12.39968 -47.9336,23.41016 l -7.81055,5.84961 -0.64648,-0.56836 0,320.12891 c 0.48293,-0.15691 0.88242,-0.26758 1.07617,-0.26758 1.13613,0 7.16557,2.66779 13.39844,5.92968 29.44372,15.40899 49.58425,11.64905 86.64648,-16.17578 54.8934,-41.21177 93.89826,-101.16503 103.71289,-159.41406 4.16197,-24.70095 4.39155,-56.41161 0.57618,-79.78711 -8.15978,-49.99223 -31.75042,-81.19922 -71.19141,-94.17969 -16.65786,-5.48228 -27.95092,-7.09732 -50.13867,-7.16992 -2.11312,-0.007 -4.01366,-0.01 -5.73438,-0.004 z"
         style="opacity:1;fill:#d25342;fill-opacity:1;stroke:none;stroke-width:1;stroke-linecap:round;stroke-miterlimit:4;stroke-dasharray:none;stroke-opacity:1"
         inkscape:connector-curvature="0" />
      <path
         inkscape:connector-curvature="0"
         id="path5643"
         d="m 318.80532,217.78225 c -0.75217,-0.38771 -0.90134,-0.74411 -1.00103,-2.39156 -0.23125,-3.82168 1.68181,-17.35378 3.85773,-27.2879 3.27993,-14.9744 9.26712,-27.7327 17.38687,-37.05023 8.42201,-9.66437 21.77078,-17.27884 37.47248,-21.37521 8.11543,-2.11722 23.31003,-4.6022 30.76069,-5.03073 l 3.80069,-0.2186 0,1.94178 c 0,1.06797 -0.24101,4.47314 -0.53559,7.56703 -2.15965,22.68232 -8.56717,41.85204 -18.19917,54.44743 -12.0162,15.71311 -32.2746,25.06617 -62.22896,28.73036 -9.02757,1.10431 -10.31872,1.1805 -11.31371,0.66763 z"
         style="opacity:1;fill:#41c19d;fill-opacity:1;stroke:none;stroke-width:1;stroke-linecap:round;stroke-miterlimit:4;stroke-dasharray:none;stroke-opacity:1" />
    </g>
    <g
       id="g5645"
       transform="matrix(0.19108411,0,0,0.19108411,42.27174,345.87229)"
       style="opacity:1">
      <g
         id="g5647"
         style="">
        <path
           sodipodi:nodetypes="ccssccssccc"
           inkscape:connector-curvature="0"
           id="path5649"
           d="m 211.23633,508.97852 0,18.38476 c 0,0 -3.00449,12.19641 -6.7168,20.32813 -3.71231,8.13173 -7.42582,15.37922 -7.07226,21.5664 0.35355,6.18719 0,79.19727 0,79.19727 l 57.91015,0 c 0,0 -0.35355,-73.01008 0,-79.19727 0.35356,-6.18718 -3.358,-13.43467 -7.07031,-21.5664 -3.71231,-8.13172 -6.7168,-20.32813 -6.7168,-20.32813 l 0,-18.38476 z"
           style="fill:#f6e8e7;fill-opacity:1;fill-rule:evenodd;stroke:none;stroke-width:1px;stroke-linecap:butt;stroke-linejoin:miter;stroke-opacity:1" />
        <rect
           ry="1.5696876"
           rx="1.5175052"
           transform="scale(1,-1)"
           style="opacity:1;fill:#f05f50;fill-opacity:1;stroke:none;stroke-width:1;stroke-linecap:round;stroke-miterlimit:4;stroke-dasharray:none;stroke-opacity:1"
           id="rect5651"
           width="31.165293"
           height="7.9763718"
           x="210.8197"
           y="-504.06293" />
        <rect
           y="502.03271"
           x="209.71484"
           height="7"
           width="33.375"
           id="rect5653"
           style="opacity:1;fill:#f6e8e7;fill-opacity:1;stroke:none;stroke-width:1;stroke-linecap:round;stroke-miterlimit:4;stroke-dasharray:none;stroke-opacity:1" />
      </g>
      <path
         id="path5655"
         d="m 226.40234,508.97852 0,139.47656 28.95508,0 c 0,0 -0.35355,-73.01008 0,-79.19727 0.35356,-6.18718 -3.358,-13.43467 -7.07031,-21.5664 -3.71231,-8.13172 -6.7168,-20.32813 -6.7168,-20.32813 l 0,-18.38476 -15.16797,0 z"
         style="fill:#e3deda;fill-opacity:1;fill-rule:evenodd;stroke:none;stroke-width:1px;stroke-linecap:butt;stroke-linejoin:miter;stroke-opacity:1"
         inkscape:connector-curvature="0" />
      <path
         id="path5657"
         d="m 226.40234,496.08594 0,7.97656 14.06446,0 c 0.84069,0 1.51758,-0.69875 1.51758,-1.56836 l 0,-4.83789 c 0,-0.86961 -0.67689,-1.57031 -1.51758,-1.57031 l -14.06446,0 z"
         style="opacity:1;fill:#f05f50;fill-opacity:1;stroke:none;stroke-width:1;stroke-linecap:round;stroke-miterlimit:4;stroke-dasharray:none;stroke-opacity:1"
         inkscape:connector-curvature="0" />
      <path
         id="path5659"
         d="m 226.40234,502.0332 0,7 16.6875,0 0,-7 -16.6875,0 z"
         style="opacity:1;fill:#e3deda;fill-opacity:1;stroke:none;stroke-width:1;stroke-linecap:round;stroke-miterlimit:4;stroke-dasharray:none;stroke-opacity:1"
         inkscape:connector-curvature="0" />
    </g>
    <rect
       y="475.36166"
       x="50.072895"
       height="8"
       width="148"
       id="rect5661"
       style="opacity:1;fill:#e3deda;fill-opacity:1;stroke:none;stroke-width:1;stroke-linecap:round;stroke-linejoin:round;stroke-miterlimit:4;stroke-dasharray:none;stroke-opacity:1" />
    <rect
       style="opacity:1;fill:#e3deda;fill-opacity:1;stroke:none;stroke-width:1;stroke-linecap:round;stroke-linejoin:round;stroke-miterlimit:4;stroke-dasharray:none;stroke-opacity:1"
       id="rect5663"
       width="148"
       height="8"
       x="50.072895"
       y="525.9198" />
    <g
       id="g5665"
       transform="matrix(0.89135599,0,0,1,-123.5793,189.59188)"
       style="opacity:1">
      <rect
         transform="scale(-1,1)"
         y="251.86777"
         x="-360.85715"
         height="3.2442889"
         width="96"
         id="rect5667"
         style="fill:#5c5c5c;fill-opacity:1;stroke-width:8.79448795;stroke-miterlimit:4;stroke-dasharray:none" />
      <rect
         transform="scale(-1,1)"
         style="fill:#5c5c5c;fill-opacity:1;stroke-width:8.79448795;stroke-miterlimit:4;stroke-dasharray:none"
         id="rect5669"
         width="96"
         height="3.2442889"
         x="-360.85715"
         y="258.06174" />
      <rect
         y="264.16052"
         x="-360.85715"
         height="3.2442889"
         width="96"
         id="rect5671"
         style="fill:#ffc000;fill-opacity:1;stroke-width:8.79448795;stroke-miterlimit:4;stroke-dasharray:none"
         transform="scale(-1,1)" />
    </g>
    <g
       id="g5673"
       transform="matrix(0.89135599,0,0,1,-123.5793,288.82558)"
       style="opacity:1">
      <rect
         style="fill:#5c5c5c;fill-opacity:1;stroke-width:8.79448795;stroke-miterlimit:4;stroke-dasharray:none"
         id="rect5675"
         width="96"
         height="3.2442889"
         x="-360.85715"
         y="251.86777"
         transform="scale(-1,1)" />
      <rect
         y="258.06174"
         x="-360.85715"
         height="3.2442889"
         width="96"
         id="rect5677"
         style="fill:#5c5c5c;fill-opacity:1;stroke-width:8.79448795;stroke-miterlimit:4;stroke-dasharray:none"
         transform="scale(-1,1)" />
      <rect
         transform="scale(-1,1)"
         style="fill:#5090f0;fill-opacity:1;stroke-width:8.79448795;stroke-miterlimit:4;stroke-dasharray:none"
         id="rect5679"
         width="96"
         height="3.2442889"
         x="-360.85715"
         y="264.16052" />
    </g>
    <g
       transform="matrix(0.89135599,0,0,1,-123.5793,241.3343)"
       id="g5681"
       style="opacity:1">
      <rect
         style="fill:#5c5c5c;fill-opacity:1;stroke-width:8.79448795;stroke-miterlimit:4;stroke-dasharray:none"
         id="rect5683"
         width="96"
         height="3.2442889"
         x="-360.85715"
         y="251.86777"
         transform="scale(-1,1)" />
      <rect
         y="258.06174"
         x="-360.85715"
         height="3.2442889"
         width="96"
         id="rect5685"
         style="fill:#5c5c5c;fill-opacity:1;stroke-width:8.79448795;stroke-miterlimit:4;stroke-dasharray:none"
         transform="scale(-1,1)" />
      <rect
         transform="scale(-1,1)"
         style="fill:#5090f0;fill-opacity:1;stroke-width:8.79448795;stroke-miterlimit:4;stroke-dasharray:none"
         id="rect5687"
         width="96"
         height="3.2442889"
         x="-360.85715"
         y="264.16052" />
    </g>
    <rect
       y="265.26364"
       x="48.808372"
       height="8"
       width="148"
       id="rect5761"
       style="opacity:1;fill:#e3deda;fill-opacity:1;stroke:none;stroke-width:1;stroke-linecap:round;stroke-linejoin:round;stroke-miterlimit:4;stroke-dasharray:none;stroke-opacity:1" />
    <g
       transform="matrix(0.19108411,0,0,0.19108411,41.007237,182.52179)"
       id="g5773"
       style="opacity:1">
      <g
         id="g5775"
         style="">
        <path
           style="fill:#f6e8e7;fill-opacity:1;fill-rule:evenodd;stroke:none;stroke-width:1px;stroke-linecap:butt;stroke-linejoin:miter;stroke-opacity:1"
           d="m 211.23633,508.97852 0,18.38476 c 0,0 -3.00449,12.19641 -6.7168,20.32813 -3.71231,8.13173 -7.42582,15.37922 -7.07226,21.5664 0.35355,6.18719 0,79.19727 0,79.19727 l 57.91015,0 c 0,0 -0.35355,-73.01008 0,-79.19727 0.35356,-6.18718 -3.358,-13.43467 -7.07031,-21.5664 -3.71231,-8.13172 -6.7168,-20.32813 -6.7168,-20.32813 l 0,-18.38476 z"
           id="path5777"
           inkscape:connector-curvature="0"
           sodipodi:nodetypes="ccssccssccc" />
        <rect
           y="-504.06293"
           x="210.8197"
           height="7.9763718"
           width="31.165293"
           id="rect5779"
           style="opacity:1;fill:#f05f50;fill-opacity:1;stroke:none;stroke-width:1;stroke-linecap:round;stroke-miterlimit:4;stroke-dasharray:none;stroke-opacity:1"
           transform="scale(1,-1)"
           rx="1.5175052"
           ry="1.5696876" />
        <rect
           style="opacity:1;fill:#f6e8e7;fill-opacity:1;stroke:none;stroke-width:1;stroke-linecap:round;stroke-miterlimit:4;stroke-dasharray:none;stroke-opacity:1"
           id="rect5781"
           width="33.375"
           height="7"
           x="209.71484"
           y="502.03271" />
      </g>
      <path
         inkscape:connector-curvature="0"
         style="fill:#e3deda;fill-opacity:1;fill-rule:evenodd;stroke:none;stroke-width:1px;stroke-linecap:butt;stroke-linejoin:miter;stroke-opacity:1"
         d="m 226.40234,508.97852 0,139.47656 28.95508,0 c 0,0 -0.35355,-73.01008 0,-79.19727 0.35356,-6.18718 -3.358,-13.43467 -7.07031,-21.5664 -3.71231,-8.13172 -6.7168,-20.32813 -6.7168,-20.32813 l 0,-18.38476 -15.16797,0 z"
         id="path5783" />
      <path
         inkscape:connector-curvature="0"
         style="opacity:1;fill:#f05f50;fill-opacity:1;stroke:none;stroke-width:1;stroke-linecap:round;stroke-miterlimit:4;stroke-dasharray:none;stroke-opacity:1"
         d="m 226.40234,496.08594 0,7.97656 14.06446,0 c 0.84069,0 1.51758,-0.69875 1.51758,-1.56836 l 0,-4.83789 c 0,-0.86961 -0.67689,-1.57031 -1.51758,-1.57031 l -14.06446,0 z"
         id="path5785" />
      <path
         inkscape:connector-curvature="0"
         style="opacity:1;fill:#e3deda;fill-opacity:1;stroke:none;stroke-width:1;stroke-linecap:round;stroke-miterlimit:4;stroke-dasharray:none;stroke-opacity:1"
         d="m 226.40234,502.0332 0,7 16.6875,0 0,-7 -16.6875,0 z"
         id="path5787" />
    </g>
    <g
       transform="matrix(0.89135599,0,0,1,-124.84381,28.991381)"
       id="g5789"
       style="opacity:1">
      <rect
         style="fill:#5c5c5c;fill-opacity:1;stroke-width:8.79448795;stroke-miterlimit:4;stroke-dasharray:none"
         id="rect5791"
         width="96"
         height="3.2442889"
         x="-360.85715"
         y="251.86777"
         transform="scale(-1,1)" />
      <rect
         y="258.06174"
         x="-360.85715"
         height="3.2442889"
         width="96"
         id="rect5793"
         style="fill:#5c5c5c;fill-opacity:1;stroke-width:8.79448795;stroke-miterlimit:4;stroke-dasharray:none"
         transform="scale(-1,1)" />
      <rect
         transform="scale(-1,1)"
         style="fill:#ffc000;fill-opacity:1;stroke-width:8.79448795;stroke-miterlimit:4;stroke-dasharray:none"
         id="rect5795"
         width="96"
         height="3.2442889"
         x="-360.85715"
         y="264.16052" />
    </g>
    <g
       id="g5805"
       transform="matrix(0.89135599,0,0,1,-124.84381,76.693653)"
       style="opacity:1">
      <rect
         transform="scale(-1,1)"
         y="251.86777"
         x="-360.85715"
         height="3.2442889"
         width="96"
         id="rect5807"
         style="fill:#5c5c5c;fill-opacity:1;stroke-width:8.79448795;stroke-miterlimit:4;stroke-dasharray:none" />
      <rect
         transform="scale(-1,1)"
         style="fill:#5c5c5c;fill-opacity:1;stroke-width:8.79448795;stroke-miterlimit:4;stroke-dasharray:none"
         id="rect5809"
         width="96"
         height="3.2442889"
         x="-360.85715"
         y="258.06174" />
      <rect
         y="264.16052"
         x="-360.85715"
         height="3.2442889"
         width="96"
         id="rect5811"
         style="fill:#5090f0;fill-opacity:1;stroke-width:8.79448795;stroke-miterlimit:4;stroke-dasharray:none"
         transform="scale(-1,1)" />
    </g>
    <g
       id="g5815"
       transform="translate(-164.04877,-0.68134625)"
       style="opacity:1">
      <path
         style="opacity:1;fill:#ffc000;fill-opacity:1;stroke:none;stroke-width:1;stroke-linecap:round;stroke-miterlimit:4;stroke-dasharray:none;stroke-opacity:1"
         d="m 234.36523,338.91993 0,0.11132 -5.83007,0 a 6.6481815,4.3734575 0 0 0 -0.55274,1.74219 6.6481815,4.3734575 0 0 0 6.38281,4.36719 l 0,0.002 0.0781,0 a 6.6481815,4.3734575 0 0 0 0.1875,0.004 6.6481815,4.3734575 0 0 0 0.12109,-0.004 l 27.0625,0 a 6.6481815,4.3734575 0 0 0 0.1875,0.004 6.6481815,4.3734575 0 0 0 6.64844,-4.37305 6.6481815,4.3734575 0 0 0 -0.55859,-1.74219 l -6.01758,0 0,-0.11132 -27.70899,0 z"
         id="path5817"
         inkscape:connector-curvature="0" />
      <path
         style="opacity:1;fill:#ffb200;fill-opacity:1;stroke:none;stroke-width:1;stroke-linecap:round;stroke-miterlimit:4;stroke-dasharray:none;stroke-opacity:1"
         d="m 255.90234,338.91992 0,0.10352 0,3.46875 0,2.65429 5.88477,0 0,-0.0195 a 6.6481815,4.3734575 0 0 0 0.21484,0.004 6.6481815,4.3734575 0 0 0 6.64844,-4.37305 6.6481815,4.3734575 0 0 0 -0.55859,-1.74219 l -6.30469,0 0,-0.0957 -5.88477,0 z"
         id="path5819"
         inkscape:connector-curvature="0" />
    </g>
    <g
       transform="matrix(0.37011895,0,0,0.16716224,10.46594,191.37605)"
       id="g5821"
       style="opacity:1">
      <path
         style="opacity:1;fill:#ffc000;fill-opacity:1;stroke:none;stroke-width:1;stroke-linecap:round;stroke-miterlimit:4;stroke-dasharray:none;stroke-opacity:1"
         d="m 199.40301,826.79518 a 57.982758,26.162951 0 0 1 57.98438,26.16211 57.982758,26.162951 0 0 1 -4.87305,10.41992 l -106.26953,0 a 57.982758,26.162951 0 0 1 -4.82422,-10.41992 57.982758,26.162951 0 0 1 57.98242,-26.16211 z"
         id="path5823"
         inkscape:connector-curvature="0" />
      <path
         style="opacity:1;fill:#ffb200;fill-opacity:1;stroke:none;stroke-width:1;stroke-linecap:round;stroke-miterlimit:4;stroke-dasharray:none;stroke-opacity:1"
         d="m 219.89681,828.5157 a 57.982758,26.162951 0 0 1 37.49023,24.44141 57.982758,26.162951 0 0 1 -4.87304,10.41992 l -32.61719,0 0,-34.86133 z"
         id="path5825"
         inkscape:connector-curvature="0" />
      <path
         inkscape:connector-curvature="0"
         style="opacity:1;fill:#ffb200;fill-opacity:1;stroke:none;stroke-width:1;stroke-linecap:round;stroke-miterlimit:4;stroke-dasharray:none;stroke-opacity:1"
         d="m 199.40234,826.79492 a 57.982758,26.162951 0 0 0 -0.084,0.002 30,3 60 0 0 15.43164,20.79687 30,3 60 0 0 -8.55078,-20.59961 57.982758,26.162951 0 0 0 -6.79688,-0.19922 z m -11.27929,0.52539 a 57.982758,26.162951 0 0 0 -6.29883,0.73828 30,3 60 0 0 14.67578,19.53516 30,3 60 0 0 -8.37695,-20.27344 z m -18.31641,3.17383 a 57.982758,26.162951 0 0 0 -5.46289,1.65234 30,3 60 0 0 12.15625,15.44727 30,3 60 0 0 -6.69336,-17.09961 z"
         id="path5827" />
    </g>
    <rect
       y="335.70013"
       x="66.175385"
       height="2"
       width="36.1875"
       id="rect5829"
       style="opacity:1;fill:#f05f50;fill-opacity:1;stroke:none;stroke-width:1;stroke-linecap:round;stroke-linejoin:round;stroke-miterlimit:4;stroke-dasharray:none;stroke-opacity:1" />
    <rect
       transform="scale(1,-1)"
       style="opacity:1;fill:#41c19d;fill-opacity:1;stroke:none;stroke-width:1;stroke-linecap:round;stroke-linejoin:round;stroke-miterlimit:4;stroke-dasharray:none;stroke-opacity:1"
       id="rect5831"
       width="37.8125"
       height="0.68113124"
       x="65.362885"
       y="-338.35321" />
    <rect
       style="opacity:1;fill:#e3deda;fill-opacity:1;stroke:none;stroke-width:1;stroke-linecap:round;stroke-linejoin:round;stroke-miterlimit:4;stroke-dasharray:none;stroke-opacity:1"
       id="rect5833"
       width="148"
       height="8"
       x="48.808372"
       y="309.76364" />
    <g
       id="g5843"
       transform="matrix(0.53596117,0,0,0.53596117,-164.99926,237.24193)"
       style="opacity:1">
      <circle
         r="11.313708"
         cy="382.02496"
         cx="412.5968"
         id="path5837"
         style="opacity:1;fill:#e3ddda;fill-opacity:0.89411765;stroke:none;stroke-width:1;stroke-linecap:round;stroke-linejoin:round;stroke-miterlimit:4;stroke-dasharray:none;stroke-opacity:1" />
    </g>
    <g
       transform="matrix(0.53596117,0,0,0.53596117,-164.99926,287.44904)"
       id="g5847"
       style="opacity:1">
      <circle
         style="opacity:1;fill:#5090f0;fill-opacity:1;stroke:none;stroke-width:1;stroke-linecap:round;stroke-linejoin:round;stroke-miterlimit:4;stroke-dasharray:none;stroke-opacity:1"
         id="circle5849"
         cx="412.5968"
         cy="382.02496"
         r="11.313708" />
      <path
         style="fill:none;fill-rule:evenodd;stroke:#ffffff;stroke-width:2.04964685;stroke-linecap:round;stroke-linejoin:round;stroke-miterlimit:4;stroke-dasharray:none;stroke-opacity:1"
         d="m 418.42428,377.86337 -8.33359,8.33359 -3.32136,-3.32136"
         id="path5851"
         inkscape:connector-curvature="0" />
    </g>
    <g
       transform="matrix(0.53596117,0,0,0.53596117,-164.99926,338.00465)"
       id="g5853"
       style="opacity:1">
      <circle
         style="opacity:1;fill:#5090f0;fill-opacity:1;stroke:none;stroke-width:1;stroke-linecap:round;stroke-linejoin:round;stroke-miterlimit:4;stroke-dasharray:none;stroke-opacity:1"
         id="circle5855"
         cx="412.5968"
         cy="382.02496"
         r="11.313708" />
      <path
         style="fill:none;fill-rule:evenodd;stroke:#ffffff;stroke-width:2.04964685;stroke-linecap:round;stroke-linejoin:round;stroke-miterlimit:4;stroke-dasharray:none;stroke-opacity:1"
         d="m 418.42428,377.86337 -8.33359,8.33359 -3.32136,-3.32136"
         id="path5857"
         inkscape:connector-curvature="0" />
    </g>
    <g
       id="g5859"
       transform="matrix(0.53596117,0,0,0.53596117,-166.26378,76.759031)"
       style="opacity:1">
      <circle
         r="11.313708"
         cy="382.02496"
         cx="412.5968"
         id="circle5861"
         style="opacity:1;fill:#e3ddda;fill-opacity:0.89411765;stroke:none;stroke-width:1;stroke-linecap:round;stroke-linejoin:round;stroke-miterlimit:4;stroke-dasharray:none;stroke-opacity:1" />
    </g>
    <g
       id="g5871"
       transform="matrix(0.53596117,0,0,0.53596117,-166.26378,124.66551)"
       style="opacity:1">
      <circle
         r="11.313708"
         cy="382.02496"
         cx="412.5968"
         id="circle5873"
         style="opacity:1;fill:#5090f0;fill-opacity:1;stroke:none;stroke-width:1;stroke-linecap:round;stroke-linejoin:round;stroke-miterlimit:4;stroke-dasharray:none;stroke-opacity:1" />
      <path
         inkscape:connector-curvature="0"
         id="path5875"
         d="m 418.42428,377.86337 -8.33359,8.33359 -3.32136,-3.32136"
         style="fill:none;fill-rule:evenodd;stroke:#ffffff;stroke-width:2.04964685;stroke-linecap:round;stroke-linejoin:round;stroke-miterlimit:4;stroke-dasharray:none;stroke-opacity:1" />
    </g>
    <g
       transform="matrix(0.53596117,0,0,0.53596117,-166.26378,-68.740753)"
       id="g5877"
       style="opacity:1">
      <circle
         style="opacity:1;fill:#e3ddda;fill-opacity:0.89411765;stroke:none;stroke-width:1;stroke-linecap:round;stroke-linejoin:round;stroke-miterlimit:4;stroke-dasharray:none;stroke-opacity:1"
         id="circle5879"
         cx="412.5968"
         cy="382.02496"
         r="11.313708" />
    </g>
    <g
       transform="matrix(0.53596117,0,0,0.53596117,-166.26378,-35.835056)"
       id="g5889"
       style="opacity:1">
      <circle
         style="opacity:1;fill:#5090f0;fill-opacity:1;stroke:none;stroke-width:1;stroke-linecap:round;stroke-linejoin:round;stroke-miterlimit:4;stroke-dasharray:none;stroke-opacity:1"
         id="circle5891"
         cx="412.5968"
         cy="382.02496"
         r="11.313708" />
      <path
         style="fill:none;fill-rule:evenodd;stroke:#ffffff;stroke-width:2.04964685;stroke-linecap:round;stroke-linejoin:round;stroke-miterlimit:4;stroke-dasharray:none;stroke-opacity:1"
         d="m 418.42428,377.86337 -8.33359,8.33359 -3.32136,-3.32136"
         id="path5893"
         inkscape:connector-curvature="0" />
    </g>
    <text
       xml:space="preserve"
       style="font-style:normal;font-weight:normal;font-size:40px;line-height:125%;font-family:sans-serif;letter-spacing:0px;word-spacing:0px;fill:#000000;fill-opacity:1;stroke:none;stroke-width:1px;stroke-linecap:butt;stroke-linejoin:miter;stroke-opacity:1;opacity:1;"
       x="279.30719"
       y="174.13557"
       id="text5895"
       sodipodi:linespacing="125%"><tspan
         sodipodi:role="line"
         id="tspan5897"
         x="279.30719"
         y="174.13557">No Sort</tspan></text>
    <text
       sodipodi:linespacing="125%"
       id="text5899"
       y="337.47723"
       x="259.50821"
       style="font-style:normal;font-weight:normal;font-size:40px;line-height:125%;font-family:sans-serif;letter-spacing:0px;word-spacing:0px;fill:#000000;fill-opacity:1;stroke:none;stroke-width:1px;stroke-linecap:butt;stroke-linejoin:miter;stroke-opacity:1;opacity:1;"
       xml:space="preserve"><tspan
         y="337.47723"
         x="259.50821"
         id="tspan5901"
         sodipodi:role="line">Category</tspan></text>
    <text
       xml:space="preserve"
       style="font-style:normal;font-weight:normal;font-size:40px;line-height:125%;font-family:sans-serif;letter-spacing:0px;word-spacing:0px;fill:#000000;fill-opacity:1;stroke:none;stroke-width:1px;stroke-linecap:butt;stroke-linejoin:miter;stroke-opacity:1;opacity:1;"
       x="259.50821"
       y="496.57626"
       id="text5903"
       sodipodi:linespacing="125%"><tspan
         sodipodi:role="line"
         id="tspan5905"
         x="259.50821"
         y="496.57626">Foodstuffs</tspan></text>
    <g
       transform="matrix(0.89135599,0,0,1,-124.84381,-117.45852)"
       id="g5907"
       style="opacity:1">
      <rect
         transform="scale(-1,1)"
         y="251.86777"
         x="-360.85715"
         height="3.2442889"
         width="96"
         id="rect5909"
         style="fill:#5c5c5c;fill-opacity:1;stroke-width:8.79448795;stroke-miterlimit:4;stroke-dasharray:none" />
      <rect
         transform="scale(-1,1)"
         style="fill:#5c5c5c;fill-opacity:1;stroke-width:8.79448795;stroke-miterlimit:4;stroke-dasharray:none"
         id="rect5911"
         width="96"
         height="3.2442889"
         x="-360.85715"
         y="258.06174" />
      <rect
         y="264.16052"
         x="-360.85715"
         height="3.2442889"
         width="96"
         id="rect5913"
         style="fill:#ffc000;fill-opacity:1;stroke-width:8.79448795;stroke-miterlimit:4;stroke-dasharray:none"
         transform="scale(-1,1)" />
    </g>
  </g>
</svg>
